# xmcd CD database file
#
# Track frame offsets:
#	150
#	22148
#	42207
#	56557
#	82510
#	103755
#	121318
#	141048
#	165565
#	187735
#	206618
#
# Disc length: 2983 seconds
#
# Revision: 4
# Processed by: cddbd v1.5.1PL0 Copyright (c) Steve Scherf et al.
# Submitted via: CDex 1.50
#
DISCID=870ba50b
DTITLE=롯데리아 - 가요 Best 11
DYEAR=1900
DGENRE=
TTITLE0=늦은후회-보보
TTITLE1=내안의 그녀-성시경
TTITLE2=진이-하이디
TTITLE3=Never Again-이수영
TTITLE4=바보-박효신
TTITLE5=난 사랑에 빠졌죠-박지윤
TTITLE6=비련-Y2K
TTITLE7=나의 얘기를-노아
TTITLE8=잘가요-정재욱
TTITLE9=발걸음-에메랄드캐슬
TTITLE10=할 수 있다면-아담
EXTD=
EXTT0=
EXTT1=
EXTT2=
EXTT3=
EXTT4=
EXTT5=
EXTT6=
EXTT7=
EXTT8=
EXTT9=
EXTT10=
PLAYORDER=
